<?xml version="1.0" encoding="iso-8859-1"?>
<!DOCTYPE svg PUBLIC "-//W3C//DTD SVG 1.1//EN" "http://www.w3.org/Graphics/SVG/1.1/DTD/svg11.dtd">
<svg 
 version="1.1" xmlns="http://www.w3.org/2000/svg" xmlns:xlink="http://www.w3.org/1999/xlink" x="0px" y="0px" width="512px"
	 height="512px" viewBox="0 0 512 512" style="enable-background:new 0 0 512 512;" xml:space="preserve"
><g fill="#ffffff" id="afcae5a789ccd549f9c6e2a2f81c221d"><g></g><path style=" clip-rule: evenodd;" d="M474.914,238.511c-4.882,15.286-24.77,29.522-24.77,29.522
			c-2.236,1.601-6.168,3.713-8.736,4.693l-17.675,6.745c-2.568,0.98-6.521,0.502-8.78-1.065l-41.948-29.074
			c-2.26-1.566-6.359-2.86-9.109-2.875c0,0-28.255-0.15-61.543-5.889c-25.474-4.392-63.348-34.749-63.348-34.749
			c-2.146-1.72-5.727-1.812-7.958-0.204c0,0-12.23,8.812,26.524,77.88c15.412,27.442,68.75,64.255,94.699,100.123
			c25.082,34.679,23.351,63.928,23.351,63.928c-0.162,2.745-2.545,4.991-5.295,4.991H60.482c-2.75,0-3.389-1.571-1.421-3.491
			c0,0,14.708-14.347,6.083-44.119C46.392,340.22,1.426,265.478,83.143,102.163C132.98,2.554,271.38,31.666,271.38,31.666
			c2.69,0.566,6.339-0.694,8.106-2.801l20.585-24.534c1.768-2.107,4.769-2.204,6.669-0.216c0,0,8.663,9.061,15.842,23.433
			c7.604,15.228,9.509,27.252,9.509,27.252c0.431,2.716,2.979,5.421,5.666,6.011c0,0,20.21,4.439,35.088,27.207
			c14.299,21.888,19.278,49.008,39.293,71.211c28.156,31.235,50.256,44.722,50.256,44.722c2.347,1.433,5.774,4.275,7.616,6.318
			C470.01,210.268,480.296,221.675,474.914,238.511z M35.828,506.5c0,2.75,2.25,5,5,5h343.769c2.75,0,5-2.25,5-5v-29.308
			c0-2.75-2.25-5-5-5H40.828c-2.75,0-5,2.25-5,5V506.5z"></path></g></svg>