<?xml version="1.0" encoding="iso-8859-1"?>
<!DOCTYPE svg PUBLIC "-//W3C//DTD SVG 1.1//EN" "http://www.w3.org/Graphics/SVG/1.1/DTD/svg11.dtd">
<svg 
 version="1.1" xmlns="http://www.w3.org/2000/svg" xmlns:xlink="http://www.w3.org/1999/xlink" x="0px" y="0px" width="512px"
	 height="512px" viewBox="0 0 512 512" enable-background="new 0 0 512 512" xml:space="preserve"
><g fill="#ffffff" id="5151e0c8492e5103c096af88a52986a7"><g></g><path display="inline" d="M467.065,245.534V73.323c0-21.779-17.774-39.497-39.614-39.497H40.114
		C18.271,33.826,0.5,51.543,0.5,73.323v276.485c0,21.779,17.771,39.497,39.614,39.497h212.393
		c18.304,51.768,67.65,88.869,125.688,88.869c73.626,0,133.305-59.679,133.305-133.305
		C511.5,305.395,494.329,269.942,467.065,245.534z M244.891,344.869c0,6.145,0.452,12.181,1.256,18.104H40.114
		c-7.281,0-13.205-5.906-13.205-13.166V73.323c0-7.26,5.923-13.166,13.205-13.166h387.337c7.281,0,13.205,5.906,13.205,13.166V227.1
		c-18.634-9.905-39.888-15.535-62.461-15.535c-14.653,0-28.739,2.399-41.927,6.767l-17.938-17.885l77.18-54.971
		c5.936-4.222,7.312-12.449,3.072-18.364c-4.244-5.915-12.489-7.286-18.421-3.06L233.783,228.302L87.404,124.054
		c-5.936-4.227-14.181-2.855-18.423,3.06c-4.237,5.915-2.862,14.142,3.072,18.364l77.182,54.971l-78.843,78.607
		c-5.157,5.143-5.157,13.482,0,18.616c2.578,2.577,5.958,3.861,9.336,3.861c3.378,0,6.761-1.284,9.336-3.861l81.957-81.71
		l62.762,44.699l62.764-44.699l14.06,14.021C271.287,253.162,244.891,295.922,244.891,344.869z M350.25,411.521l-55.569-58.741
		l18.156-18.642l37.413,40.668l93.305-96.589l18.155,18.073L350.25,411.521z"></path></g></svg>