<?xml version="1.0" encoding="iso-8859-1"?>
<!DOCTYPE svg PUBLIC "-//W3C//DTD SVG 1.1//EN" "http://www.w3.org/Graphics/SVG/1.1/DTD/svg11.dtd">
<svg 
 version="1.1" xmlns="http://www.w3.org/2000/svg" xmlns:xlink="http://www.w3.org/1999/xlink" x="0px" y="0px" width="512px"
	 height="512px" viewBox="0 0 512 512" style="enable-background:new 0 0 512 512;" xml:space="preserve"
><g fill="#ffffff" id="7935ec95c421cee6d86eb22ecd14720a"><g></g><path style="display: inline;  clip-rule: evenodd;" d="M454.723,114.056H416.87H95.13
		c-10.41,0-18.927-8.517-18.927-18.926c0-10.409,8.517-18.926,18.927-18.926h321.74V38.352c0-21.688-17.033-37.852-37.852-37.852
		L76.203,38.352c-20.818,0-37.852,17.743-37.852,39.43v394.291c0,21.684,17.033,39.427,37.852,39.427h302.815
		c20.818,0,37.852-17.743,37.852-39.427V270.194l41.638-31.228c8.328-6.247,15.141-19.873,15.141-30.282v-75.704
		C473.648,122.572,465.132,114.056,454.723,114.056z M346.604,435.796l-64.26-58.854c-18.091,16.075-40.945,24.227-63.867,24.227
		c-23.222,0-46.502-8.351-64.978-25.27c-39.197-35.903-41.866-96.78-5.966-135.979c18.978-20.722,44.949-31.235,70.995-31.235
		c23.221,0,46.505,8.351,64.979,25.269c36.71,33.623,41.375,89.151,12.328,128.261l64.256,58.854L346.604,435.796z M269.366,249.398
		c30.614,28.041,32.707,75.77,4.661,106.384c-14.224,15.533-34.473,24.441-55.55,24.441c-18.859,0-36.91-7.023-50.831-19.769
		c-14.834-13.589-23.487-32.138-24.367-52.228c-0.883-20.094,6.114-39.327,19.699-54.161c14.224-15.528,34.473-24.438,55.554-24.438
		h0.004C237.392,229.629,255.441,236.649,269.366,249.398z"></path></g></svg>