<?xml version="1.0" encoding="iso-8859-1"?>
<!DOCTYPE svg PUBLIC "-//W3C//DTD SVG 1.1//EN" "http://www.w3.org/Graphics/SVG/1.1/DTD/svg11.dtd">
<svg 
 version="1.1" xmlns="http://www.w3.org/2000/svg" xmlns:xlink="http://www.w3.org/1999/xlink" x="0px" y="0px" width="512px"
	 height="512px" viewBox="0 0 512 512" enable-background="new 0 0 512 512" xml:space="preserve"
><g fill="#ffffff" id="3e91140ac1bfb9903b91c1b0ca02ce92"><g></g><path display="inline" d="M488.033,409.584L339.118,260.666l-75.348,75.346c0.021,0.886-0.038,1.758-0.051,2.64l147.623,147.623
		c25.415,25.415,63.185,28.847,84.359,7.668C516.88,472.764,513.448,434.999,488.033,409.584z M465.029,463.266
		c-8.474,8.473-22.204,8.473-30.678,0c-8.469-8.474-8.469-22.2,0-30.673c8.474-8.473,22.204-8.473,30.678,0
		C473.502,441.065,473.502,454.792,465.029,463.266z M35.013,217.307c-39.294-39.292-32.08-113.214-32.08-113.214
		c1.43-14.682,11.558-17.741,22.496-6.802l54.855,54.853c10.939,10.941,30.696,15.093,43.901,9.228l3.605-1.602
		c13.203-5.868,28.476-21.636,33.939-35.037l1.182-2.904c5.459-13.404,0.979-33.323-9.962-44.264L98.904,23.52
		c-10.939-10.939-7.88-21.066,6.8-22.5c0,0,73.911-7.223,113.364,32.232c36.124,36.121,45.215,89.233,27.686,135.051l19.655,19.656
		L189.72,264.65l-19.658-19.658C124.243,262.52,71.134,253.428,35.013,217.307z M401.43,198.356l32.376,32.372
		c8.435,8.437,22.237,8.437,30.673,0l19.768-19.764c8.435-8.438,12.565-24.699,9.185-36.138l-15.95-53.906
		c-3.381-11.438-13.053-27.701-21.488-36.138l-75.58-75.577c-8.436-8.437-22.238-8.437-30.673,0l-53.394,53.39
		c-8.436,8.437-8.436,22.24,0,30.677l32.376,32.372c8.435,8.437,8.435,22.24,0,30.677L212.974,272.073
		c-8.435,8.439-20.166,15.519-26.07,15.734c-5.903,0.216-26.303,13.795-35.341,21.581L39.7,405.72
		c-9.039,7.787-19.702,21.568-23.693,30.627c-3.991,9.058,13.072,36.794,21.507,45.229l7.71,7.711
		c8.435,8.435,36.246,25.555,45.391,21.64c9.145-3.914,23.087-14.434,30.982-23.377l97.56-110.499
		c7.895-8.943,16.665-21.056,19.486-26.919c2.822-5.863,9.189-28.855,17.626-37.29l114.487-114.485
		C379.191,189.919,392.994,189.919,401.43,198.356z M173.29,333.876L62.495,429.284c-9.041,7.787-18.738,17.133-21.551,20.771
		c0,0,0,0-0.102,4.076c-0.093,4.084-0.093,4.084-0.093,4.084c2.637,3.906,2.354,4.66-0.633,1.673
		c-2.987-2.986-7.586-8.621-10.221-12.527c0,0,0,0,0.093-4.084c0.093-4.084,0.093-4.084,0.093-4.084
		c2.817-3.635,12.519-12.98,21.558-20.764l110.795-95.416c9.039-7.782,18.878-11.71,21.865-8.723
		C187.286,317.277,182.331,326.09,173.29,333.876z"></path></g></svg>